#!OML:ASF F:\VICON\USERDATA\INSTALL\rory3\rory3.ASF
:FULLY-SPECIFIED
:DEGREES
19
root -1.1955322755271767 17.76049829837464 -11.529191020021127 2.9169881263710344 5.350408446536551 -0.5154659112991523
lfemur -34.26409357391612 5.387433480531694 -25.436195038758605
ltibia 35.214108829266294
lfoot -2.8628165422332366 -17.29309078210973
ltoes -12.223498962632753
rfemur 6.374340340676552 5.682235456943204 31.035193430114898
rtibia 75.46279636033464
rfoot 18.908992992608738 -11.490993849945287
rtoes 8.229846828969224
lowerback 14.573005059208924 1.9342528512802062 1.6613381908620835
upperback -0.03646489656270813 2.861964241171539 0.14043103107255006
thorax -8.151314789500956 1.3191137652329834 -1.3978134265992375
lowerneck -18.150407049506697 -6.606825506187829 -1.6191151335654395
upperneck 14.658194021515378 -9.374585689529795 4.266073480123287
head 7.784924527888107 -4.133295136867816 0.5424374530612219
lclavicle 1.1641096254457944e-16 1.6716104776867302e-15
lhumerus -67.44418834054377 -1.4736831766277207 93.84789486167408
lradius 108.27399612489864
lwrist 32.742908840558115
lhand -28.10760257381284 0.17183533513944305
lfingers 7.125019999999998
lthumb -1.489842650377811 30.14640417786766
rclavicle 1.1641096254457944e-16 1.6716104776867302e-15
rhumerus -32.191607359306744 15.825294605050427 -94.70960033399815
rradius 107.37299731872216
rwrist -19.583801969245933
rhand -19.71069452661386 39.33560661867848
rfingers 7.125019999999998
rthumb 6.619105424201983 9.459056653051494
20
root -1.1852625652688806 17.58160132855324 -10.512991786035418 1.9831252910519632 7.275433624149155 0.3561674839013321
lfemur -32.49169507311634 4.559865325091386 -26.134593916782666
ltibia 41.279106144903466
lfoot -7.666753556442626 -18.49958879947512
ltoes 0.002877413244648963
rfemur 2.5844426135063348 1.543182782141064 28.74679683882421
rtibia 84.54779428374366
rfoot 18.3321932611505 -10.232796523554336
rtoes 15.060892071935635
lowerback 15.755197891533172 1.381076693797946 0.8038254112705154
upperback 0.1979340738066403 1.9724078750441638 -0.08325681575615806
thorax -8.611987217720017 0.9142646884317511 -0.9956931468866398
lowerneck -17.7446094551872 -6.570725749220207 -1.8055810915395092
upperneck 14.567394570990762 -9.355525657451187 4.686680445742631
head 7.717105984561243 -4.103295449994786 0.7239812135820152
lclavicle 1.1641091666608898e-16 1.6716104475721144e-15
lhumerus -64.68379049750253 -2.936309466107572 94.97479137893532
lradius 109.18499561004359
lwrist 32.91610795262653
lhand -28.369401930335332 -0.03648943918892478
lfingers 7.125019999999998
lthumb -1.742721887786061 29.93610442743625
rclavicle 1.1641091666608898e-16 1.6716104475721144e-15
rhumerus -35.01840591991447 14.709196026361312 -95.72779634132466
rradius 103.76100023815053
rwrist -20.727898660075905
rhand -18.357802594241978 40.12040365742888
rfingers 7.125019999999998
rthumb 7.92501736966461 10.28900368633176
21
root -1.18183136167601 17.39197608047646 -9.093452727148541 1.1109239678750877 6.654877951040093 1.6521928424540955
lfemur -30.5012254400249 3.5312417195184747 -26.199766273195458
ltibia 46.457357875220175
lfoot -13.324488381973222 -12.783947006206397
ltoes -3.119405946191094
rfemur -2.224993176989443 -1.8223799507131195 24.066095940921564
rtibia 93.46456926737761
rfoot 17.06179929485246 -10.417643006496288
rtoes 12.307926098401696
lowerback 17.732660421097133 1.503453695464802 -0.4532844527101346
upperback 0.22283224361040244 1.841192262011598 -0.46290024662937557
thorax -8.765110373177203 0.9726561951651813 -0.38727393497613527
lowerneck -17.828361629349992 -6.443788191049835 -2.003001208242774
upperneck 14.588234298441828 -9.26560646328808 5.619941741742863
head 7.685188496477612 -3.8565190609994984 1.1769049569497967
lclavicle 1.1695035927347714e-16 1.6719776448478339e-15
lhumerus -61.60089661756275 -5.0243525933716295 95.80549258847121
lradius 110.12782493917052
lwrist 32.621674614624894
lhand -28.44927532266039 6.39449607752658
lfingers 7.125019999999998
lthumb -1.7786781346368936 36.37367276564845
rclavicle 1.1926305525064986e-16 1.674589767412358e-15
rhumerus -36.40896654162648 14.278464711732779 -96.61205550103415
rradius 99.59399523927459
rwrist -20.083771334961238
rhand -16.58465067617524 41.70242178167205
rfingers 7.125019999999998
rthumb 7.368205665239694 9.901579142186296
22
root -1.1765406869225723 17.20886908036753 -8.344788834077544 1.6234855419707266 7.042679611440176 3.2063662329334393
lfemur -28.22912641375254 0.990102748028056 -27.325931076438515
ltibia 50.00699214767975
lfoot -18.339317818458436 -6.54532635174304
ltoes -2.372870313833749
rfemur -9.736814764324595 -5.248942095074262 20.119462331780795
rtibia 102.26371738589481
rfoot 15.74524455631034 -10.866544791160624
rtoes 15.132104999139882
lowerback 17.540354440099293 1.4031177732448457 -1.6163249726714604
upperback 0.40739748737336 1.490947249792792 -1.0254676921206896
thorax -8.90996337876531 0.8694925164871311 0.19918421224387958
lowerneck -18.123297106904595 -6.31233583697856 -1.982491113423662
upperneck 14.566746932683637 -9.212848228322128 6.135283552243123
head 7.682482651593081 -3.773096704604281 1.2906775422747976
lclavicle 1.1959165612892795e-16 1.673771507911813e-15
lhumerus -58.15225558283213 -7.302725631530805 96.30149796533816
lradius 109.65457309537817
lwrist 32.39606845426283
lhand -27.998196768822055 9.972125587690782
lfingers 7.125019999999998
lthumb -1.4976997547444344 39.310425447951026
rclavicle 1.177897706008801e-16 1.6733234882067205e-15
rhumerus -38.52020973955877 13.270515310912707 -97.53903845277577
rradius 95.26216947283997
rwrist -19.175847371708898
rhand -17.91906631935469 39.981063307271306
rfingers 7.125019999999998
rthumb 6.886656724805361 10.038377599269513
23
root -1.1421357951872853 17.12354103177592 -7.7664084032992715 2.6045945556369423 7.06694685207655 4.659470823732484
lfemur -25.987708448500843 -1.3459943768556508 -28.42449639195484
ltibia 51.770527979164385
lfoot -21.70784498160859 -2.1186999762774708
ltoes -1.5584630915717366
rfemur -17.896542876889523 -8.000423219286624 17.486140339440254
rtibia 109.86344135970404
rfoot 14.544337492998075 -10.89244744992265
rtoes 14.5245047022139
lowerback 17.248175555495283 1.3221866075335504 -2.799656149407425
upperback 0.431057952125789 1.215705907292301 -1.2735560342707393
thorax -9.088268460746209 0.7564989884603329 0.5460755408045864
lowerneck -18.497892405278435 -6.127385200597805 -1.9435452226117873
upperneck 14.340799810544612 -9.07715630006541 6.426270152523504
head 7.662991598526417 -3.6975489749889077 1.3420913682785303
lclavicle 1.1874315987007373e-16 1.6731943633455953e-15
lhumerus -54.49088398136172 -9.493112366431731 96.28153708347405
lradius 108.06669160907734
lwrist 32.33381530054863
lhand -27.591568951341706 11.37227387234763
lfingers 7.125019999999998
lthumb -1.2019349573061815 40.45161169281248
rclavicle 1.2145803403355937e-16 1.6759474126086124e-15
rhumerus -41.06826875892524 11.822847088193004 -98.36653699750156
rradius 91.35196357380461
rwrist -18.140017258398107
rhand -17.999267588435444 39.139147340410915
rfingers 7.125019999999998
rthumb 6.790105407922487 9.446869559487684
24
root -1.1286231382137162 17.013143260531184 -7.449867589182743 3.6111539904010215 6.960364459212549 5.296672608002005
lfemur -23.56026240174659 -2.5721540070765245 -28.815027465062272
ltibia 52.21538934561706
lfoot -24.315922268806997 -0.10719069512503943
ltoes 0.14896290241589583
rfemur -25.864755891453488 -9.896944706483744 16.4791998080513
rtibia 115.37026898849264
rfoot 13.44176458798134 -10.21187754127961
rtoes 16.48416321460607
lowerback 16.808265172404422 1.1324868410470756 -3.2817894239062926
upperback 0.2675364705887837 0.8580217122077218 -1.1817975109820082
thorax -9.101056857942515 0.5948810459078675 0.7969291997969083
lowerneck -18.765035897963553 -5.94053336007131 -1.8823617650080449
upperneck 13.895781174864814 -8.870807479258644 6.5767196848050915
head 7.61728044556577 -3.6218710995602685 1.3563838573254827
lclavicle 1.1865983800236742e-16 1.673137727305705e-15
lhumerus -50.5528492806364 -11.3068804519462 95.74715490299394
lradius 105.70234166195921
lwrist 32.22103848872613
lhand -27.394026081204625 11.370649108439945
lfingers 7.125019999999998
lthumb -1.1184722418611657 40.6090587610236
rclavicle 1.2656381569282348e-16 1.6790935529269753e-15
rhumerus -44.12431494548547 10.065276409089549 -99.0025250020596
rradius 88.84795408551419
rwrist -17.532128034428183
rhand -17.6363531315467 39.48205079945153
rfingers 7.125019999999998
rthumb 6.9010689151218285 9.619979853547857
25
root -1.11729575731695 16.956648970749843 -6.535533844522044 4.71693414039884 5.3918869454320975 5.1478929619495055
lfemur -21.405698943085604 -1.3635256325401786 -28.67821275039089
ltibia 51.53135438179042
lfoot -25.419315180675977 0.7952450442345356
ltoes 0.0026702283275419347
rfemur -33.565192166783454 -9.119159203422988 16.967294061174893
rtibia 118.35354286878135
rfoot 12.322873278528174 -9.22570630077111
rtoes 15.223762195803804
lowerback 15.919214864650563 1.2776226488039701 -3.449548605890238
upperback 0.16428311392798323 1.0306520084554713 -0.9437968332467016
thorax -9.092159510156886 0.7123717960726236 1.2149812958192954
lowerneck -18.956992415748267 -5.64673721822343 -1.909097842634084
upperneck 13.522707734056013 -8.473146177326797 6.627394375602202
head 7.599516418809941 -3.4678797491940134 1.4038226115113546
lclavicle 1.2227409692319518e-16 1.6755927824249472e-15
lhumerus -46.76919822444591 -12.452552400803697 94.96233032182884
lradius 103.928080147578
lwrist 32.037491089829764
lhand -27.260482534158047 9.99751090237963
lfingers 7.125019999999998
lthumb -1.0943472093631916 39.422720145399865
rclavicle 1.1860543949772753e-16 1.6735714817795641e-15
rhumerus -47.19743461964998 8.321401284957668 -99.34012031546366
rradius 88.41101966631669
rwrist -17.711522922219565
rhand -18.013717816152415 39.22480031265202
rfingers 7.125019999999998
rthumb 6.917418433572075 9.863983904680014
26
root -1.096982228386224 16.986328496701727 -5.077815423935112 5.546164399801533 1.4469934321704112 4.506581685667381
lfemur -19.3575813235799 2.8860978967255986 -28.39367955529236
ltibia 50.044340341062586
lfoot -24.6367951794785 1.4396352489532518
ltoes -4.389438988369076
rfemur -40.57592834135958 -4.465439515961649 18.15208745300685
rtibia 118.57179271996227
rfoot 11.342739282389587 -8.66651015543709
rtoes 12.649477768028637
lowerback 15.349363572392491 1.9256301059449563 -4.269362765505244
upperback 0.20575252148082324 1.7595802428573342 -0.6355705401093569
thorax -9.108871617653785 1.0209857503976236 1.5516184656997405
lowerneck -19.3959809400549 -5.360707915359049 -1.8383016512590309
upperneck 13.412530985417026 -8.06077001211817 6.412200527102343
head 7.6760502660943075 -3.2964986037465867 1.3778069147210281
lclavicle 1.2038837165549876e-16 1.6743116851134718e-15
lhumerus -43.80136296119443 -12.756454110155492 94.35457721167778
lradius 104.3121607871301
lwrist 31.837311006674508
lhand -27.381020770032926 8.156882047357673
lfingers 7.125019999999998
lthumb -1.3178418583865492 37.77275738586787
rclavicle 1.2705829528105398e-16 1.6800192699201856e-15
rhumerus -50.061553156995146 7.067858965344778 -99.40026144684053
rradius 89.80203529563587
rwrist -18.733223461535573
rhand -18.272386479117507 39.43915655441636
rfingers 7.125019999999998
rthumb 7.062651755479777 10.30493525055072
